<?xml version="1.0" encoding="UTF-8"?>
<!-- WhatsApp Official Glyph (simplified, flat) -->
<svg xmlns="http://www.w3.org/2000/svg" viewBox="0 0 512 512" role="img" aria-label="WhatsApp icon">
  <title>WhatsApp</title>
  <path fill="#25D366" d="M256 0C114.615 0 0 114.615 0 256c0 45.469 12.188 89.172 35.339 127.406L0 512l131.43-34.292C168.93 492.469 211.469 512 256 512c141.385 0 256-114.615 256-256S397.385 0 256 0z"/>
  <path fill="#FFFFFF" d="M381.522 306.058c-6.022-3.006-35.608-17.549-41.114-19.547-5.508-1.997-9.522-2.997-13.536 2.997-4.014 5.995-15.534 19.547-19.022 23.555-3.488 3.998-6.451 4.497-12.474 1.499-33.526-16.574-55.514-29.696-77.091-66.013-5.814-9.997 5.814-9.295 16.582-30.981 1.823-3.998.911-7.481-.456-9.987-1.367-2.497-12.03-30.203-16.535-41.497-4.195-10.792-8.498-9.328-12.995-9.489-3.488-.165-7.421-.199-11.353-.199-3.933 0-10.413 1.499-15.864 7.061-5.451 5.562-21.387 20.92-21.387 51.023 0 30.103 22.014 59.23 24.998 63.228 2.984 3.999 43.025 66.291 103.714 93.604 14.482 6.296 25.92 10.042 34.903 12.549 14.664 4.539 28.051 3.899 38.92 2.366 11.871-1.708 36.364-14.756 40.884-29.009 4.517-14.253 4.517-25.642 3.177-29.009-1.339-3.366-5.049-5.263-10.331-8.269z"/>
</svg>
